HIERARCHY
ROOT pelvis
{
  OFFSET 0 100 0
  CHANNELS 6 Xposition Yposition Zposition Zrotation Xrotation Yrotation
  JOINT pelvis_right_femur
  {
    OFFSET -10.78128 -3.44521 -0.5502486
    CHANNELS 3 Zrotation Xrotation Yrotation
    JOINT right_femur_tibia
    {
      OFFSET -0.8047443 -44.0398 -0.1307829
      CHANNELS 3 Zrotation Xrotation Yrotation
      JOINT right_tibia_foot
      {
        OFFSET 3.006224 -47.83518 -5
        CHANNELS 3 Zrotation Xrotation Yrotation
        End Site
        {
          OFFSET 0 -5 15
        }
      }
    }
  }
  JOINT pelvis_left_femur
  {
    OFFSET 10.78128 -3.44521 -0.5502486
    CHANNELS 3 Zrotation Xrotation Yrotation
    JOINT left_femur_tibia
    {
      OFFSET 0.8047443 -44.0398 -0.1307829
      CHANNELS 3 Zrotation Xrotation Yrotation
      JOINT left_tibia_foot
      {
        OFFSET -4.370144 -48.10324 -4.275266
        CHANNELS 3 Zrotation Xrotation Yrotation
        End Site
        {
          OFFSET 0 -5 15
        }
      }
    }
  }
  JOINT pelvis_spine1
  {
    OFFSET 0 6.468898 -3.129235
    CHANNELS 3 Zrotation Xrotation Yrotation
    JOINT spine1
    {
      OFFSET 0 23.15396 4.99043
      CHANNELS 3 Zrotation Xrotation Yrotation
      JOINT spine2
      {
        OFFSET 0 20.79997 -5.064912
        CHANNELS 3 Zrotation Xrotation Yrotation
        JOINT neck
        {
          OFFSET 0 14.38658 9.616178
          CHANNELS 3 Zrotation Xrotation Yrotation
          End Site
          {
            OFFSET 0 20 0
          }
        }
      }
      JOINT right_manubrium
      {
        OFFSET -5.722621 16.35077 3.967754
        CHANNELS 3 Zrotation Xrotation Yrotation
        JOINT right_clavicle
        {
          OFFSET -13.16364 1.694482 -4.693211
          CHANNELS 3 Zrotation Xrotation Yrotation
          JOINT right_humerus
          {
            OFFSET -28.5034 -0.3100689 -2.792744
            CHANNELS 3 Zrotation Xrotation Yrotation
            JOINT right_radius
            {
              OFFSET -25.15693 0.02248979 -1.271978
              CHANNELS 3 Zrotation Xrotation Yrotation
              End Site
              {
                OFFSET -15 0 0
              }
            }
          }
        }
      }
      JOINT left_manubrium
      {
        OFFSET 5.722621 16.35077 3.967754
        CHANNELS 3 Zrotation Xrotation Yrotation
        JOINT left_clavicle
        {
          OFFSET 13.16364 1.694482 -4.693211
          CHANNELS 3 Zrotation Xrotation Yrotation
          JOINT left_humerus
          {
            OFFSET 29.39168 -1.063119 -2.237045
            CHANNELS 3 Zrotation Xrotation Yrotation
            JOINT left_radius
            {
              OFFSET 24.59957 -0.9528479 0.9047498
              CHANNELS 3 Zrotation Xrotation Yrotation
              End Site
              {
                OFFSET 15 -0 -0
              }
            }
          }
        }
      }
    }
  }
}
MOTION
Frames: 15
Frame Time: 0.0416666666667
-219.8079 104.2822 3066.87 -2.593944 -9.019255 -17.41007 6.222146 4.081366 3.679714 -0 12.2546 -0 -5.907639 -6.830929 -4.003269 -0.3829993 -12.21729 -4.357138 -0 52.92691 -0 -4.378531 -5.090644 18.67086 -0.6418989 -5.935902 4.426696 0.6114862 16.54972 -6.668301 1.853193 23.77838 3.964321 3.661867 -14.95262 4.855161 5.022524 -20.98148 14.82303 83.81319 14.01261 -16.62865 -0 0 19.36797 -26.42149 17.90892 11.84705 7.797323 -25.01455 -6.054536 -97.62781 15.38057 23.87527 -0 0 0.4492288 18.50506 27.13531 -12.0048
-221.3181 104.1402 3072.234 -2.73514 -8.926193 -18.38963 5.883958 7.96727 3.364298 -0 10.90802 -0 -5.432131 -10.44772 -3.487531 0.7337202 -17.09038 -3.67723 -0 44.45216 -0 -4.210721 -5.602391 19.19635 -0.5949372 -5.943816 4.545092 0.5662655 16.76453 -6.535678 1.93317 23.70287 3.451489 3.395208 -14.43911 4.503844 5.075831 -21.68276 14.91358 83.28148 13.57118 -15.34202 -0 0 20.96726 -27.06493 18.71569 12.78435 7.251433 -24.4277 -6.190511 -98.32468 15.44067 25.59799 -0 0 2.568815 16.8004 27.54294 -10.24233
-222.7392 103.4901 3077.752 -2.721874 -8.419809 -19.23891 5.373669 11.63798 2.86411 -0 10.18207 -0 -5.004403 -13.17746 -2.800493 1.616667 -20.82374 -3.186449 -0 35.01917 -0 -3.948503 -6.048879 19.34505 -0.5504515 -5.995363 4.689562 0.5521953 16.92161 -6.440944 2.020893 23.55903 2.896754 3.066951 -13.93386 4.174641 5.112426 -22.46364 14.99015 82.68382 13.12256 -14.04012 -0 0 22.76115 -27.57947 19.59137 13.6593 6.716451 -23.84837 -6.274593 -98.87556 15.42121 27.21828 -0 0 4.348682 15.23476 27.85951 -8.629501
-224.1138 102.5483 3083.557 -2.421389 -7.480317 -19.91403 4.635404 14.83089 2.570166 -0 10.46564 -0 -4.246309 -14.51255 -1.974904 2.054827 -23.53161 -2.965582 -0 26.51766 -0 -3.697548 -6.311854 19.25204 -0.5196416 -6.073879 4.836516 0.5689064 17.00209 -6.382156 2.109698 23.37823 2.346934 2.710928 -13.46321 3.889645 5.139887 -23.23693 15.04376 82.05637 12.70964 -12.80418 -0 0 24.58093 -27.93674 20.46029 14.41299 6.229307 -23.30368 -6.300003 -99.2613 15.36595 28.61699 -0 0 5.738423 13.89706 28.09202 -7.260355
-225.4803 101.5183 3089.718 -1.950371 -6.484858 -20.43027 3.754624 17.31942 2.587245 -0 12.20072 -0 -3.198999 -14.28782 -1.211021 1.957421 -25.08533 -3.072668 -0 20.20238 -0 -3.547592 -6.4705 19.13971 -0.5107986 -6.15762 4.963971 0.6069045 17.00463 -6.346704 2.192966 23.20161 1.849856 2.369824 -13.04643 3.661314 5.169486 -23.91675 15.07184 81.4386 12.36625 -11.69993 -0 0 26.25369 -28.14493 21.2426 15.01186 5.819247 -22.81271 -6.272025 -99.50882 15.3231 29.72908 -0 0 6.780595 12.82653 28.26547 -6.176236
-226.871 100.5891 3096.245 -1.543878 -5.876192 -20.8069 2.909902 18.98182 2.732826 -0 15.80751 -0 -2.260248 -12.52264 -0.7116501 1.342528 -25.28822 -3.527579 -0 16.53214 -0 -3.485297 -6.63506 19.14641 -0.5263816 -6.228887 5.056705 0.6525228 16.94503 -6.320302 2.265095 23.06541 1.445179 2.084325 -12.69643 3.493122 5.212644 -24.43768 15.07864 80.87017 12.11087 -10.78124 -0 0 27.63697 -28.23612 21.87354 15.44425 5.50657 -22.3923 -6.20581 -99.66814 15.32647 30.5368 -0 0 7.558476 12.02879 28.41015 -5.382625
-228.3051 99.95854 3103.086 -1.35987 -5.877152 -21.02914 2.219055 19.66635 2.812341 -0 21.53916 -0 -1.781674 -9.456847 -0.5891203 0.2770198 -23.98311 -4.341456 -0 15.38404 -0 -3.438782 -6.872823 19.25614 -0.5627984 -6.278898 5.106428 0.6929449 16.85133 -6.294524 2.321508 22.99309 1.161271 1.887071 -12.42178 3.382749 5.279343 -24.75924 15.07355 80.39038 11.94738 -10.10007 -0 0 28.62869 -28.25078 22.31271 15.71051 5.305026 -22.06309 -6.122759 -99.78916 15.38957 31.04832 -0 0 8.148883 11.4979 28.55388 -4.872807
-229.7743 99.81709 3110.108 -1.411109 -6.456129 -21.05556 1.676881 19.11062 2.756052 -0 29.26684 -0 -1.862517 -5.532596 -0.8475097 -1.129602 -21.1291 -5.485912 -0 16.2455 -0 -3.320171 -7.241668 19.35191 -0.612871 -6.306436 5.10972 0.718706 16.75496 -6.268014 2.358344 22.99544 1.017231 1.801392 -12.22982 3.326471 5.37705 -24.86008 15.06729 80.03634 11.87283 -9.708546 -0 0 29.16031 -28.22419 22.53977 15.81318 5.224959 -21.8491 -6.044687 -99.9087 15.51052 31.27804 -0 0 8.599447 11.23198 28.71677 -4.644086
-231.2328 100.2843 3117.1 -1.571837 -7.363175 -20.83325 1.191591 16.99457 2.591756 -0 38.16862 -0 -2.346207 -1.291614 -1.38576 -2.69999 -16.96991 -6.821808 -0 18.26787 -0 -3.03801 -7.841119 19.29081 -0.6687366 -6.314112 5.066997 0.7243853 16.68135 -6.243869 2.372409 23.07297 1.024972 1.840602 -12.12974 3.322716 5.508556 -24.73318 15.06774 79.83888 11.88521 -9.650729 -0 0 29.19186 -28.17654 22.54634 15.75152 5.274196 -21.77249 -5.987527 -100.0448 15.67833 31.23641 -0 0 8.921455 11.23965 28.90577 -4.703567
-232.6086 101.3208 3123.822 -1.646982 -8.21922 -20.31627 0.6739713 13.10847 2.373023 -0 46.5796 -0 -2.905704 2.625394 -2.059195 -4.201445 -12.10961 -8.102633 -0 20.3265 -0 -2.546232 -8.825633 18.97618 -0.7236594 -6.305985 4.983086 0.7090831 16.6431 -6.227299 2.361498 23.21627 1.188424 2.005532 -12.13377 3.373777 5.669088 -24.3868 15.07707 79.81765 11.98666 -9.950847 -0 0 28.71656 -28.1069 22.33271 15.52065 5.456358 -21.84786 -5.95666 -100.1922 15.87564 30.92747 -0 0 9.085336 11.54021 29.10937 -5.06748
-233.8442 102.6748 3130.093 -1.527202 -8.734901 -19.50612 0.1422362 7.625894 2.103827 -0 52.36756 -0 -3.248397 5.415229 -2.791733 -5.385088 -7.262577 -9.076542 -0 21.27432 -0 -1.917708 -10.32193 18.42484 -0.7727429 -6.28739 4.868542 0.6772618 16.63632 -6.224778 2.325357 23.40446 1.4988 2.280105 -12.25454 3.484879 5.84415 -23.85098 15.09078 79.9749 12.18086 -10.59981 -0 0 27.77611 -27.99211 21.91262 15.11595 5.766566 -22.07662 -5.944814 -100.3188 16.07837 30.3532 -0 0 9.020202 12.15588 29.29488 -5.752993
-234.9415 103.9417 3135.853 -1.317323 -8.942879 -18.49147 -0.2500871 1.257295 1.699286 -0 53.89311 -0 -3.401051 6.330629 -3.60705 -6.040381 -2.770737 -9.617073 -0 20.44082 -0 -1.320592 -12.27166 17.77892 -0.8129602 -6.266388 4.739896 0.6389443 16.64223 -6.243934 2.267097 23.60491 1.928262 2.628523 -12.49702 3.659892 6.01113 -23.18363 15.09964 80.28881 12.46469 -11.54485 -0 0 26.47764 -27.79467 21.32308 14.54258 6.186452 -22.44255 -5.93424 -100.3707 16.25605 29.52498 -0 0 8.630238 13.09404 29.41422 -6.761367
-235.9681 104.7408 3141.165 -1.214974 -9.071304 -17.42137 -0.3471006 -5.091816 1.053769 -0 50.82772 -0 -3.702817 5.317114 -4.490858 -6.106736 1.500811 -9.763977 -0 18.02728 -0 -0.8567408 -14.39983 17.20399 -0.8429932 -6.254146 4.616925 0.6071049 16.63548 -6.291888 2.1938 23.77966 2.429964 3.001043 -12.84962 3.895655 6.146619 -22.46487 15.09451 80.71271 12.82055 -12.69288 -0 0 24.98772 -27.48054 20.62683 13.82448 6.683693 -22.91184 -5.903889 -100.2915 16.37678 28.47712 -0 0 7.836365 14.32691 29.42114 -8.059715
-237.0232 104.8801 3146.196 -1.25415 -9.106493 -16.43024 -0.1469476 -10.89966 0.159265 -0 44.02183 -0 -4.366154 3.349601 -5.263243 -5.753711 5.661956 -9.624372 -0 14.93044 -0 -0.4750419 -16.3961 16.7483 -0.863304 -6.26125 4.51729 0.5923086 16.59471 -6.371131 2.114885 23.8982 2.950453 3.34959 -13.28429 4.180129 6.235376 -21.77503 15.07043 81.18585 13.21945 -13.93185 -0 0 23.48835 -27.03643 19.89555 13.00373 7.219459 -23.43957 -5.837542 -100.0507 16.41718 27.27054 -0 0 6.622586 15.78588 29.28947 -9.576559
-238.1961 104.3911 3151.181 -1.290163 -8.709803 -15.58912 0.219578 -16.08532 -0.8486258 -0 34.91149 -0 -5.179557 1.786587 -5.654374 -5.279643 9.450461 -9.266111 -0 12.21172 -0 -0.126523 -18.05955 16.3061 -0.8762747 -6.291955 4.451828 0.5988049 16.50783 -6.476403 2.03907 23.9473 3.446206 3.642072 -13.76687 4.496296 6.273757 -21.1711 15.02682 81.65062 13.63464 -15.15691 -0 0 22.12248 -26.47327 19.18511 12.13012 7.758406 -23.979 -5.7273 -99.65611 16.37053 25.98148 -0 0 5.050044 17.37603 29.01823 -11.21554
